<?xml version="1.0" encoding="utf-8"?>
<!-- Generator: Adobe Illustrator 21.0.0, SVG Export Plug-In . SVG Version: 6.00 Build 0)  -->
<svg version="1.1" xmlns="http://www.w3.org/2000/svg" xmlns:xlink="http://www.w3.org/1999/xlink" x="0px" y="0px"
	 viewBox="0 0 750 500" style="enable-background:new 0 0 750 500;" xml:space="preserve">
<style type="text/css">
	.st0{fill:#EFD937;}
	.st1{fill:#FFFFFF;}
	.st2{fill:#8CCAD9;}
	.st3{fill:#DD9934;}
</style>
<g id="BACKGROUND">
</g>
<g id="OBJECTS">
	<circle class="st0" cx="215" cy="-14.4" r="125.9"/>
	<circle class="st0" cx="95" cy="386.1" r="125.9"/>
	<circle class="st0" cx="748.9" cy="527.1" r="125.9"/>
	<g>
		<path class="st1" d="M792.7,344.3c-4.3-0.8-8.5-1.9-12.5-3.4c-3.1-1.4-6.1-3-9-4.8c-0.4-0.2-0.7-0.5-1.1-0.7c-0.9-1-4-3.2-4.6-3.8
			c-1.3-1.2-2.6-2.5-3.8-3.9c-0.3-0.3-0.7-0.8-1.4-1.6c-1.8-2.6-3.3-5.4-4.7-8.2c-1.8-5.2-3-10.6-4.8-15.9
			c-3.3-9.6-7.8-18.1-16-24.4c-9.8-7.6-23.1-9.6-34.9-5.7c-8,2.7-14.9,7.2-22.3,10.9c-1.6,0.5-3.1,0.9-4.7,1.3
			c-1.9,0.1-3.7,0.1-5.6,0c-2.4-0.5-4.7-1.1-7-1.9c-2-1-4-2-5.9-3.3c-0.1-0.1-0.2-0.1-0.3-0.2c-0.8-0.9-3-2.4-3.5-2.8
			c-1.1-1-2.1-2.1-3.1-3.2c0,0-0.1-0.1-0.1-0.2c-1.1-1.8-2.2-3.6-3.1-5.4c-0.6-1.7-1-3.4-1.4-5.1c-0.1-1.6-0.1-3.2,0-4.8
			c1.2-6.4,3.3-12.6,5.8-18.7c10-22.8,22.5-47.6,12.4-72.7c-5.8-14.5-15.7-26-29.2-34.1c-13-7.8-27.8-11.2-42.8-12
			c-16.5-0.9-33.1,2.1-49.4,4.4c-21.1,2.7-42.5,4.1-63.7,1.7c-9.7-1.5-19.3-3.9-28.5-7.5c-4.5-2-8.9-4.3-13-6.9
			c-1.4-0.9-2.7-1.7-4-2.6c-0.8-0.6-2.2-2-3.2-2.4c0,0,0,0,0,0c-1.2-1-2.4-2.1-3.6-3.2c-2.1-1.9-4.1-3.9-6-6
			c-0.8-0.9-1.5-1.8-2.3-2.7c-0.3-0.4-0.6-0.8-0.8-1.1c-2.8-3.9-5.2-8-7.2-12.4c-1.5-4.1-2.7-8.3-3.5-12.6c-0.4-4.6-0.4-9.1,0-13.6
			c1-5.8,2.6-11.4,4.7-16.9c1.8-4,3.8-8,6.2-11.7c1.3-2.2,2.7-4.3,4.2-6.4c0.7-1,1.5-1.9,2.1-2.9c-0.3,0.4-0.5,0.8-0.7,1.1
			c0.3-0.5,0.7-1,0.9-1.3c3.3-4,6.9-7.7,10.7-11.3c1.8-1.7,3.7-3.4,5.6-5c1.2-1.1,2.5-2.1,3.8-3.1c11.2-8.3,23.2-15.5,35.5-22.1
			c-10.1-10.9-20.3-21.9-30.4-32.8C431.4-49.1,417-39.6,404-28c-21,18.7-38.3,44.9-42.5,73.1c-2.2,15.1-2,30.5,3,45.1
			c4.7,13.8,12.1,25.9,21.7,36.8c17.9,20.2,43.6,33.5,69.8,39.1c17.2,3.7,35,4.8,52.6,4.1c16.9-0.7,33.6-3.1,50.3-5.4
			c11.4-1.5,22.9-2.5,34.4-1.4c4,0.7,7.9,1.7,11.8,3.1c1.8,0.9,3.6,1.8,5.3,2.9c1.1,0.6,2.1,1.4,3.1,2.1c0.2,0.2,0.3,0.4,0.5,0.5
			c1,0.9,2,1.9,2.9,2.9c0.2,0.2,0.3,0.4,0.5,0.6c1,1.5,1.8,3,2.6,4.5c0.4,1.2,0.7,2.5,1,3.8c0.1,1.7,0.1,3.4,0,5.1
			c-1.1,5.8-3,11.4-5.2,16.9c-5.1,11.5-10.9,23-14,35.2c-3.9,15.7-2.9,30.9,3.7,45.6c10.8,24.2,37.4,40.2,63.5,41
			c7.1,0.2,14.7-0.8,21.4-3.4c6.7-2.5,12.6-6.2,18.9-9.3c0.9,2.8,1.7,5.7,2.5,8.6c1.6,5.7,3.7,11.2,6.3,16.6
			c4.4,9.1,11,17.5,18.6,24.1c16.4,14.3,37.1,23.1,58.9,23.9c1.2-14.6,2.9-29.1,5.2-43.6C798.2,344.6,795.4,344.6,792.7,344.3z"/>
	</g>
	<g>
		<path class="st2" d="M532.3,575.5c-0.1,0.5-0.2,1-0.3,1.5c0.2-1.3,0.3-2.6,0.5-3.9C532.4,573.9,532.3,574.7,532.3,575.5
			c0.8-4.8,2.2-9.4,3.9-13.9c-0.3,0.6-0.5,1.2-0.8,1.7c0.5-1.2,1-2.3,1.5-3.5c-0.2,0.6-0.4,1.2-0.7,1.7c1.7-3.8,3.7-7.4,6-10.9
			c1.2-1.9,2.5-3.7,3.8-5.4c0.8-1,1.5-2.1,2.3-3.1c0.3-0.3,0.5-0.7,0.8-1c-0.2,0.3-0.5,0.6-0.7,0.9c0.4-0.6,0.9-1.2,1.3-1.7
			c-0.2,0.3-0.4,0.5-0.6,0.8c0.1-0.1,0.1-0.2,0.2-0.3c7-9,14.4-17.9,20.2-27.8c6-10.3,10-21.7,10.7-33.6c0.7-11.3-2.5-22.6-7.6-32.5
			c-9.8-18.9-29-33.7-49.8-38.4c-21.8-5-45.2,0.6-63.5,13.2c-10.8,7.4-19.7,16.5-27.2,27.2c-6.9,9.9-10.8,21.1-15.3,32.2
			c0.2-0.5,0.5-1,0.7-1.5c-0.5,1.2-1,2.3-1.5,3.5c0.3-0.7,0.5-1.3,0.8-2c-0.9,2-1.8,3.9-2.8,5.7c-0.6,1.1-1.3,2.2-2,3.2
			c0.1-0.1,0.1-0.2,0.2-0.2c2-2.2-1.9,2.8-0.3,0.4c0-0.1,0.1-0.1,0.1-0.2c-0.3,0.3-0.5,0.6-0.8,0.9c-0.6,0.6-1.2,1.2-1.8,1.7
			c0.3-0.2,0.6-0.4,1.1-0.7c-0.4,0.3-0.8,0.6-1.2,0.8c0,0,0,0,0,0c-0.1,0.1-0.1,0.1-0.2,0.2c-0.7,0.6-1.8,1.2-0.3,0.1
			c-1,0.7-2.1,1.3-3.2,1.8c0.6-0.2,1.2-0.4,1.8-0.7c-1.2,0.5-2.3,1-3.5,1.5c0.6-0.2,1.1-0.5,1.7-0.8c-1.6,0.6-3.3,1-5,1.3
			c0.6,0,1.1-0.1,1.7-0.2c-1.3,0.2-2.6,0.3-3.9,0.5c0.7-0.1,1.5-0.2,2.2-0.4c-2.1,0.2-4.2,0.2-6.3,0c0.6,0.1,1.2,0.2,1.8,0.3
			c-1.3-0.2-2.6-0.3-3.9-0.5c0.7,0.1,1.4,0.1,2,0.2c-1.9-0.4-3.8-0.9-5.7-1.5c0.5,0.2,0.9,0.5,1.4,0.7c-1.2-0.5-2.3-1-3.5-1.5
			c0.7,0.3,1.4,0.6,2.1,0.8c-1.1-0.5-2.2-1.1-3.2-1.8c-0.3-0.2-0.6-0.4-0.9-0.7c0.3,0.2,0.6,0.6,1.1,1c-0.6-0.6-1.3-1.1-2-1.7
			c-0.6-0.5-1.1-1.1-1.6-1.7c0,0.1,0.1,0.1,0.1,0.2c0.2,0.4,0.3,0.5,0.4,0.6c0,0.1,0,0.1,0,0c-0.1-0.1-0.4-0.6-0.7-1c0,0,0,0,0,0
			c-0.1-0.1-0.2-0.3-0.3-0.4c-0.1-0.2-0.2-0.3-0.3-0.4c0,0-0.1-0.1-0.1-0.1c0,0,0.1,0,0.1,0.1c0.1,0.1,0.2,0.2,0.3,0.4
			c0.1,0.1,0.2,0.3,0.3,0.5c0,0.1,0.1,0.1,0.2,0.2c-0.9-1.5-1.7-2.9-2.5-4.5c0.2,0.6,0.4,1.3,0.7,1.9c-0.5-1.2-1-2.3-1.5-3.5
			c0.2,0.5,0.5,1.1,0.8,1.6c-0.9-2.5-1.5-5.1-2-7.7c0.1,0.8,0.1,1.5,0.2,2.3c-0.2-1.3-0.3-2.6-0.5-3.9c0.1,0.5,0.2,1.1,0.3,1.6
			c-0.9-8.7-0.2-17.5,0.3-26.2c0.5-9.2,0.2-18.4-1.8-27.4c-2-9.3-6.3-18.5-13-25.3c-8.8-8.8-20.7-12.2-32.9-12.5
			c-11.8-0.2-23.6,2.2-35.5,1.1c0.8,0.2,1.6,0.3,2.5,0.4c-1.3-0.2-2.6-0.3-3.9-0.5c0.5,0.1,0.9,0.1,1.4,0.1c-2.5-0.5-4.9-1.1-7.3-2
			c0.6,0.3,1.1,0.6,1.7,0.8c-1.2-0.5-2.3-1-3.5-1.5c0.6,0.2,1.2,0.4,1.8,0.7c-0.9-0.4-1.8-0.9-2.6-1.4c-0.5-0.3-1-0.6-1.4-0.9
			c0.3,0.3,0.7,0.6,1,0.9c-2-1.5-2.5-1.9-1.6-1.2c0.2,0.1,0.4,0.3,0.6,0.4c0,0,0,0,0,0c-0.5-0.5-1-0.9-1.5-1.4c0,0-0.1-0.1-0.1-0.1
			c0.1,0.2,0.2,0.3,0.3,0.5c-0.5-0.6-0.9-1.1-1.1-1.4c0.1,0.2,0.1,0.4,0.2,0.6c-0.1-0.2-0.2-0.5-0.3-0.7c-0.4-0.5-0.4-0.5,0-0.1
			c-0.3-0.7-0.6-1.4-0.9-2c0,0.1,0,0.3,0,0.4c0-0.2,0-0.3-0.1-0.5c-0.1-0.2-0.2-0.4-0.2-0.6c0.1,0.2,0.2,0.3,0.2,0.4
			c-0.1-1.1-0.3-2.2-0.4-3.3c0.1,0.5,0.2,1,0.3,1.6c-0.1-2.2-0.1-4.5,0.1-6.7c-0.1,0.7-0.2,1.4-0.3,2.1c0.2-1.3,0.3-2.6,0.5-3.9
			c-0.1,0.6-0.1,1.2-0.2,1.8c1.7-10.4,5.3-20.4,9.3-30c-0.3,0.7-0.6,1.3-0.9,2c0.5-1.2,1-2.3,1.5-3.5c-0.2,0.5-0.4,1-0.6,1.5
			c9.4-22,20.9-43.6,22.2-68c1.2-22.4-8.4-44.6-25.9-58.7c-16.8-13.6-38.3-21.7-60-20.4c-23.1,1.3-44.7,12.6-60.2,29.5
			c-7.3,7.9-13.3,16.9-18,26.4c8.5,4.7,16.8,9.7,25.1,14.9c1.7-3.5,3.6-7,5.7-10.3c1.1-1.8,2.3-3.5,3.6-5.2c-0.2,0.3,0,0,1.3-1.7
			c-0.4,0.6-0.8,1.2-1.3,1.7c0.3-0.4,1.5-2,2-2.6c0.9-1.1,1.8-2.1,2.8-3.1c1.9-2,3.9-4,6-5.8c1-0.9,2-1.7,3-2.5
			c-0.2,0.1-0.4,0.3-0.6,0.4c-2.1,1.6,2.7-2.2,0.8-0.6c-0.1,0.1-0.1,0.1-0.2,0.2c0.4-0.3,0.7-0.5,1.1-0.8c4-2.8,8.3-5.3,12.7-7.3
			c-0.6,0.2-1.2,0.4-1.8,0.7c1.2-0.5,2.3-1,3.5-1.5c-0.6,0.2-1.1,0.5-1.7,0.8c4.3-1.7,8.8-3,13.4-3.7c-0.7,0.1-1.3,0.1-2,0.2
			c1.3-0.2,2.6-0.3,3.9-0.5c-0.6,0.1-1.2,0.2-1.9,0.3c4.8-0.5,9.5-0.5,14.3,0c-0.7-0.1-1.3-0.2-2-0.3c1.3,0.2,2.6,0.3,3.9,0.5
			c-0.6-0.1-1.3-0.1-1.9-0.2c5.4,0.9,10.6,2.3,15.7,4.3c-0.8-0.4-1.5-0.7-2.3-1c1.2,0.5,2.3,1,3.5,1.5c-0.4-0.2-0.8-0.3-1.2-0.4
			c2.9,1.3,5.8,2.9,8.5,4.6c1.7,1.1,3.2,2.2,4.9,3.4c-0.4-0.3-0.8-0.5-1-0.7c0.4,0.3,0.8,0.6,1,0.8c0.8,0.7,1.6,1.3,2.3,2
			c1.4,1.3,2.8,2.7,4.1,4.2c0.5,0.6,1,1.2,1.5,1.8c-0.1-0.2-0.3-0.4-0.5-0.7c0.2,0.3,0.5,0.6,0.7,1c0.1,0.1,0.2,0.2,0.3,0.3
			c0.5,0.6,1.1,1.6,0.5,0.8c1.7,2.5,3.2,5.1,4.5,7.8c-0.2-0.6-0.4-1.2-0.7-1.8c0.5,1.2,1,2.3,1.5,3.5c-0.2-0.6-0.5-1.1-0.8-1.7
			c1.2,3.2,2.1,6.5,2.7,9.9c-0.1-0.7-0.1-1.4-0.2-2.1c0.2,1.3,0.3,2.6,0.5,3.9c-0.1-0.6-0.2-1.2-0.3-1.8c0.5,4.7,0.4,9.4-0.1,14
			c0.1-0.7,0.3-1.4,0.4-2.2c-0.2,1.3-0.3,2.6-0.5,3.9c0.1-0.6,0.1-1.1,0.2-1.7c-1.6,10-5,19.6-8.9,29c0.3-0.7,0.6-1.4,0.9-2.1
			c-0.5,1.2-1,2.3-1.5,3.5c0.2-0.5,0.4-0.9,0.6-1.4c-8.2,19-18.3,38-21.4,58.7c-1.1,7.5-1.5,14.8,0.3,22.2
			c1.6,6.5,5.2,12.6,9.9,17.3c8.9,8.9,21.1,12.8,33.3,13.9c13.1,1.2,26.2-2.1,39.3-1c-0.7-0.1-1.4-0.2-2-0.3
			c1.3,0.2,2.6,0.3,3.9,0.5c-0.6-0.1-1.2-0.1-1.8-0.2c1.5,0.3,2.9,0.6,4.3,1.1c-0.5-0.3-1-0.6-1.6-0.8c1.2,0.5,2.3,1,3.5,1.5
			c-0.6-0.2-1.3-0.5-1.9-0.7c0.9,0.5,1.9,1,2.8,1.6c0,0-0.1-0.1-0.1-0.1c0,0-0.2-0.2-0.5-0.4c-0.3-0.2-0.5-0.4-0.5-0.4
			c0,0,0.2,0.2,0.5,0.4c0.8,0.6,2.2,1.5,1,0.7c-0.1-0.1-0.3-0.2-0.4-0.3c0.7,0.6,1.3,1.2,1.9,1.9c0,0,0.1,0.1,0.1,0.1
			c-0.2-0.2-0.3-0.4-0.4-0.7c-0.8-1.3,2.2,2.6,1.1,1.5c-0.2-0.3-0.5-0.5-0.7-0.8c0.3,0.5,0.6,0.9,0.9,1.4c0.6,0.9,1.1,1.9,1.6,2.9
			c-0.2-0.5-0.4-1.1-0.6-1.6c0.5,1.2,1,2.3,1.5,3.5c-0.3-0.6-0.6-1.3-0.9-1.9c1.2,3.2,2,6.5,2.6,9.9c-0.1-0.7-0.1-1.3-0.2-2
			c0.2,1.3,0.3,2.6,0.5,3.9c-0.1-0.6-0.2-1.3-0.3-1.9c1.1,10.9-0.4,21.8-0.5,32.7c-0.2,15.2,2.7,30.1,12.5,42.2
			c14.7,18,45.5,21.7,64.3,8.2c6.6-4.8,11.9-10.7,15.6-18c3.4-6.7,5.8-13.9,8.6-21c-0.2,0.5-0.4,1-0.6,1.4c0.5-1.2,1-2.3,1.5-3.5
			c-0.3,0.7-0.6,1.4-0.8,2c2-4.4,4.3-8.7,6.9-12.8c0.7-1.1,1.5-2.2,2.2-3.3c0.3-0.4,0.8-0.9,1.1-1.4c-0.1,0.1-0.2,0.2-0.3,0.4
			c-0.3,0.4-0.6,0.7-0.9,1.1c0.5-0.6,0.9-1.2,1.4-1.8c0,0.1-0.1,0.2-0.2,0.3c1.6-1.9,3.2-3.8,4.9-5.5c1.8-1.9,3.8-3.7,5.7-5.4
			c0.5-0.5,1.1-0.9,1.6-1.4c0.1,0,0.1-0.1,0.2-0.2c-0.7,0.5-1.7,1.3,0,0c1.8-1.4,0.7-0.5,0,0c0.2-0.2,0.4-0.3,0.5-0.4
			c0.5-0.3,1-0.7,1.5-1c3.9-2.7,8.1-5.1,12.4-7.1c-0.6,0.2-1.1,0.4-1.7,0.6c1.2-0.5,2.3-1,3.5-1.5c-0.6,0.3-1.2,0.6-1.8,0.8
			c4.6-1.8,9.3-3.1,14.1-3.9c-0.7,0.1-1.4,0.1-2.2,0.2c1.3-0.2,2.6-0.3,3.9-0.5c-0.6,0.1-1.1,0.2-1.7,0.3c4-0.4,7.9-0.4,11.9-0.1
			c-0.6-0.1-1.3-0.2-1.9-0.3c1.3,0.2,2.6,0.3,3.9,0.5c-0.7-0.1-1.3-0.1-2-0.2c3.8,0.7,7.5,1.7,11.2,3.1c-0.7-0.3-1.3-0.6-2-0.9
			c1.2,0.5,2.3,1,3.5,1.5c-0.5-0.2-1-0.4-1.5-0.6c2.8,1.3,5.4,2.8,8,4.4c0.9,0.6,1.7,1.1,2.5,1.8c-0.1-0.1-0.1-0.1-0.2-0.2
			c-1.5-1.2,1.1,0.9,1.3,1c-0.4-0.2-0.8-0.6-1.1-0.8c0,0,0,0,0,0c1.4,1.2,2.8,2.4,4.2,3.7c1.3,1.3,2.6,2.6,3.8,4
			c0.2,0.2,0.6,0.8,1,1.2c-0.7-0.9-1.3-1.8-0.2-0.3c1,1.3,0.7,0.9,0.2,0.3c0.3,0.4,0.6,0.8,0.7,1c1.8,2.6,3.4,5.4,4.8,8.3
			c-0.2-0.6-0.4-1.2-0.7-1.8c0.5,1.2,1,2.3,1.5,3.5c-0.3-0.6-0.5-1.1-0.8-1.7c1.1,3,2,6,2.5,9.2c-0.1-0.7-0.1-1.3-0.2-2
			c0.2,1.3,0.3,2.6,0.5,3.9c-0.1-0.6-0.2-1.3-0.3-1.9c0.2,2.7,0.2,5.3,0,8c0.1-0.6,0.2-1.2,0.3-1.8c-0.2,1.3-0.3,2.6-0.5,3.9
			c0.1-0.7,0.1-1.4,0.2-2.1c-0.7,3.7-1.7,7.2-3,10.7c0.3-0.6,0.5-1.1,0.8-1.7c-0.5,1.2-1,2.3-1.5,3.5c0.3-0.6,0.5-1.2,0.7-1.8
			c-3.5,7.6-8.2,14.5-13.2,21.1c-0.2,0.2-0.9,1.2-1.3,1.7c0.7-0.9,1.4-1.8,0.3-0.4c-0.8,1-0.7,0.9-0.3,0.4c-0.4,0.5-0.8,1-0.9,1.2
			c-1.4,1.8-2.9,3.6-4.3,5.5c-3.4,4.3-6.7,8.6-9.8,13.1c-5.3,7.5-9.3,16-12.1,24.7c-2.4,7.6-3.9,16-3.4,24
			c9.7-0.5,19.4-0.8,29.2-0.8C532,579.7,532.1,577.6,532.3,575.5z"/>
	</g>
	<path class="st2" d="M486.6,70.2c-2.3-2.7-2-6.7,0.7-9l20.9-18c1.8-1.6,4.5-1.3,6.1,0.5c1.5,1.8,1.3,4.5-0.5,6.1l-17.9,15.4
		c-0.5,0.4-1.2,0.4-1.6-0.1c-0.4-0.5-0.4-1.2,0.1-1.6l17.9-15.4c0.8-0.7,0.9-2,0.2-2.8c-0.7-0.8-2-0.9-2.8-0.2l-20.9,18
		c-1.7,1.5-1.9,4-0.4,5.7c1.5,1.7,4,1.9,5.7,0.4l26.5-22.8c2.5-2.1,2.8-5.9,0.6-8.4c-2.1-2.5-5.9-2.8-8.4-0.6L487.5,59
		c-0.5,0.4-1.2,0.4-1.6-0.1c-0.4-0.5-0.4-1.2,0.1-1.6l25.3-21.7c3.5-3,8.7-2.6,11.7,0.9c3,3.5,2.6,8.7-0.9,11.7l-26.5,22.8
		C492.9,73.2,488.9,72.9,486.6,70.2z"/>
	<circle class="st0" cx="461" cy="33.1" r="3.9"/>
	<circle class="st3" cx="299.2" cy="370.4" r="5.8"/>
	<circle class="st3" cx="672.3" cy="256.9" r="5.8"/>
	<circle class="st1" cx="482.5" cy="450.8" r="4.5"/>
</g>
</svg>
